<!DOCTYPE svg PUBLIC "-//W3C//DTD SVG 1.1//EN" "http://www.w3.org/Graphics/SVG/1.1/DTD/svg11.dtd">

<!-- Uploaded to: SVG Repo, www.svgrepo.com, Transformed by: SVG Repo Mixer Tools -->
<svg fill="#9D9D9C" height="64px" width="64px" version="1.1" id="Layer_1" xmlns="http://www.w3.org/2000/svg" xmlns:xlink="http://www.w3.org/1999/xlink" viewBox="0 0 511.95 511.95" xml:space="preserve" stroke="#9D9D9C" stroke-width="0.00511953">

<g id="SVGRepo_bgCarrier" stroke-width="0"/>

<g id="SVGRepo_tracerCarrier" stroke-linecap="round" stroke-linejoin="round" stroke="#CCCCCC" stroke-width="1.023906"/>

<g id="SVGRepo_iconCarrier"> <g transform="translate(-1)"> <g> <g> <path d="M256.995,149.287c-11.776,0-21.333,9.579-21.333,21.333c0,11.755,9.557,21.333,21.333,21.333s21.333-9.579,21.333-21.333 C278.328,158.865,268.771,149.287,256.995,149.287z"/> <path d="M365.518,38.887C325.987,6.311,274.04-6.639,223.011,3.239C154.147,16.615,100.152,72.273,88.718,141.735 c-6.784,41.003,0.725,81.216,21.696,116.267l8.704,14.528c27.861,46.443,56.64,94.485,79.701,143.893l38.848,83.221 c3.499,7.509,11.029,12.309,19.328,12.309s15.829-4.8,19.328-12.309l34.965-74.923c23.317-49.984,52.096-98.688,79.957-145.792 l12.971-22.016c15.339-26.091,23.445-55.936,23.445-86.293C427.662,119.484,405.006,71.463,365.518,38.887z M256.995,234.62 c-35.285,0-64-28.715-64-64s28.715-64,64-64s64,28.715,64,64S292.28,234.62,256.995,234.62z"/> </g> </g> </g> </g>

</svg>